<?xml version="1.0" encoding="UTF-8" standalone="no"?>
<!-- Created with Inkscape (http://www.inkscape.org/) -->

<svg
   version="1.1"
   id="svg1791"
   width="120"
   height="120"
   viewBox="0 0 120 120"
   sodipodi:docname="leafbetter.svg"
   inkscape:version="1.2.2 (732a01da63, 2022-12-09, custom)"
   xmlns:inkscape="http://www.inkscape.org/namespaces/inkscape"
   xmlns:sodipodi="http://sodipodi.sourceforge.net/DTD/sodipodi-0.dtd"
   xmlns="http://www.w3.org/2000/svg"
   xmlns:svg="http://www.w3.org/2000/svg">
  <defs
     id="defs1795" />
  <sodipodi:namedview
     id="namedview1793"
     pagecolor="#ffffff"
     bordercolor="#000000"
     borderopacity="0.25"
     inkscape:showpageshadow="2"
     inkscape:pageopacity="0"
     inkscape:pagecheckerboard="false"
     inkscape:deskcolor="#d1d1d1"
     showgrid="false"
     showborder="true"
     shape-rendering="auto"
     inkscape:zoom="5.5454453"
     inkscape:cx="54.278779"
     inkscape:cy="67.352572"
     inkscape:window-width="1846"
     inkscape:window-height="1016"
     inkscape:window-x="0"
     inkscape:window-y="0"
     inkscape:window-maximized="1"
     inkscape:current-layer="g1797" />
  <g
     inkscape:groupmode="layer"
     inkscape:label="Image"
     id="g1797">
    <path
       id="path7475"
       style="fill:#34bc85;fill-opacity:1;stroke-width:1.33333"
       d="m 96.701472,10.024571 c -1.05815,0.11733 -2.44167,1.50163 -4.30469,4.02149 -4.61424,6.2411 -16.96253,11.49753 -34.18164,14.54883 -21.06611,3.73299 -24.67204,4.86486 -31.05468,9.75781 -7.88179,6.04218 -11.16593,12.95323 -11.16992,23.50586 -0.002,5.64207 0.56175,8.7357 1.6621,9.11133 0.91628,0.31279 2.01805,-0.53069 2.44727,-1.875 4.29022,-13.43683 9.9324,-19.66696 19.81641,-21.87891 5.81996,-1.30245 9.08901,-1.10863 21.57031,1.2793 8.09085,1.54795 18.41385,3.20276 22.93945,3.67578 4.52562,0.47302 8.22852,1.05048 8.22852,1.28516 0,0.23469 -1.21532,3.67256 -2.69922,7.63867 -7.92127,21.1715 -33.0421,29.21683 -58.28906,18.66797 l -4.73828,-1.97852 8.4414,-8.51562 c 6.85482,-6.91631 8.01415,-8.67691 6.17969,-9.38086 -2.93969,-1.12807 -12.63372,6.76489 -19.5332,15.90429 -5.30775,7.03089 -13.8823899,23.979515 -15.4433599,30.525389 -0.69306,2.90629 -0.40423,3.66602 1.39453,3.66602 1.2481599,0 2.5917199,-1.22896 2.9843699,-2.73047 1.08819,-4.16125 9.48537,-21.269529 10.43946,-21.269529 0.46207,0 3.31618,2.12139 6.34375,4.71289 11.77455,10.078579 28.10805,15.049329 41.25195,12.556629 17.93043,-3.400434 32.576648,-19.905139 41.857428,-47.169909 4.63206,-13.60795 3.84692,-16.94413 -2.89258,-12.2793 -1.4465,1.00123 -4.04663,2.26226 -5.77734,2.80274 -3.136248,0.97941 -3.142898,0.95611 -2.197274,-7.19141 0.521864,-4.49616 0.525284,-12.95721 0.008,-18.80273 -0.660184,-7.45799 -1.519624,-10.7834402 -3.283214,-10.5879 z m -2.13672,9.29297 c 1.0241,0 0.96204,19.96524 -0.0781,25.16602 -0.73945,3.6973 -1.34961,4.16601 -5.41797,4.16601 -2.52165,0 -11.82472,-1.4987 -20.67383,-3.33203 -17.89629,-3.7077 -24.31671,-4.06801 -31.92969,-1.78711 -2.84063,0.85106 -7.55821,3.59689 -10.48437,6.10157 -3.62523,3.10304 -5.03954,3.77816 -4.43945,2.11914 3.55056,-9.81571 11.51303,-14.0126 35.1914,-18.54883 19.90878,-3.81407 26.78452,-6.03548 32.74024,-10.57813 2.38475,-1.81894 4.67619,-3.30664 5.09179,-3.30664 z m 12.007828,31.02149 c 0.85919,0.13839 0.72234,1.02391 0.20898,3.24609 -1.75333,7.58965 -11.621638,25.62299 -17.751958,32.44141 -3.67141,4.08348 -9.12812,8.33813 -13.01563,10.14844 -11.12849,5.182189 -25.27537,3.741825 -38.3125,-3.89844 -3.14398,-1.84249 -6.86728,-4.62005 -8.27343,-6.17383 l -2.55665,-2.82617 5.89063,2.14648 c 9.24561,3.36816 27.19164,4.00737 36.50195,1.30078 10.79419,-3.13793 21.76314,-14.00507 26.07617,-25.83398 3.33793,-9.1546 3.06143,-8.82451 8.474618,-10.12109 1.36733,-0.32752 2.2423,-0.51272 2.75782,-0.42969 z" />
    <path
       style="fill:#000000;stroke-width:1.33333"
       id="path7419"
       d="" />
  </g>
</svg>
